<svg xmlns="http://www.w3.org/2000/svg" width="633.104" height="97.789" viewBox="0 0 633.104 97.789">
  <g id="Group_1" data-name="Group 1" transform="translate(-491 -448)">
    <g id="Group_2" data-name="Group 2" transform="translate(398.387 366.289)">
      <g id="Group_1-2" data-name="Group 1">
        <path id="Path_1" data-name="Path 1" d="M145.879,81.711h-21.36l-31.906,77.87h21.36Z" fill="#ffa600"/>
        <path id="Path_2" data-name="Path 2" d="M150.762,84.166l-10.723,26.172,20.177,49.244h22.639Z" fill="#100f0c"/>
        <path id="Path_3" data-name="Path 3" d="M221.452,104.15a22.51,22.51,0,0,0-10.315,2.317,18.966,18.966,0,0,0-7.448,6.729v-7.722H187.474v54.169H204.13V129.3a12.274,12.274,0,0,1,3.146-8.825,10.943,10.943,0,0,1,8.329-3.311q4.3,0,6.345,2.538t2.039,8.053v31.884h16.66V126.987q0-11.474-4.744-17.156T221.452,104.15Z" fill="#100f0c"/>
        <path id="Path_4" data-name="Path 4" d="M280.54,127.759l-9.155-2.1a14.361,14.361,0,0,1-4.635-1.874,3.259,3.259,0,0,1-1.321-2.759,4.151,4.151,0,0,1,2.2-3.751,11.786,11.786,0,0,1,6.068-1.323q8.382,0,16.989,5.957l4.415-11.032a34.955,34.955,0,0,0-9.929-4.965,37.128,37.128,0,0,0-11.363-1.765,31.729,31.729,0,0,0-12.193,2.207,19.3,19.3,0,0,0-8.272,6.067,14.393,14.393,0,0,0-2.925,8.936q0,6.4,3.7,10.1t11.531,5.46l8.825,1.987a15.779,15.779,0,0,1,5.571,1.984,3.627,3.627,0,0,1,1.489,3.089,3.881,3.881,0,0,1-2.151,3.476,11.891,11.891,0,0,1-6.012,1.268,35.742,35.742,0,0,1-10.7-1.654,37.035,37.035,0,0,1-9.709-4.633L248.548,153.9a34.03,34.03,0,0,0,10.757,4.911,51.912,51.912,0,0,0,13.734,1.71q10.92,0,17.157-4.469a14.319,14.319,0,0,0,6.233-12.3q0-6.506-3.808-10.315T280.54,127.759Z" fill="#100f0c"/>
        <path id="Path_5" data-name="Path 5" d="M403.582,133.44q-3.8-3.8-12.081-5.681l-9.159-2.1a14.372,14.372,0,0,1-4.631-1.874,3.255,3.255,0,0,1-1.325-2.759,4.155,4.155,0,0,1,2.208-3.751,11.786,11.786,0,0,1,6.068-1.323q8.382,0,16.989,5.957l4.411-11.032a34.849,34.849,0,0,0-9.929-4.965,37.09,37.09,0,0,0-11.363-1.765,31.712,31.712,0,0,0-12.189,2.207,19.289,19.289,0,0,0-8.275,6.067,14.409,14.409,0,0,0-2.922,8.936q0,6.4,3.7,10.1t11.527,5.46l8.826,1.987A15.731,15.731,0,0,1,391,140.887a3.619,3.619,0,0,1,1.489,3.089,3.875,3.875,0,0,1-2.152,3.476,11.881,11.881,0,0,1-6.012,1.268,35.722,35.722,0,0,1-10.7-1.654,36.929,36.929,0,0,1-9.709-4.633l-4.41,11.467a34.041,34.041,0,0,0,10.759,4.911A51.888,51.888,0,0,0,384,160.526q10.92,0,17.154-4.469a14.312,14.312,0,0,0,6.233-12.3Q407.387,137.249,403.582,133.44Z" fill="#100f0c"/>
        <path id="Path_6" data-name="Path 6" d="M342.371,105.54l-13.024,31.787L316.323,105.54H300.229L321.3,156.967,312.068,179.5h16.094l30.3-73.959Z" fill="#100f0c"/>
      </g>
      <path id="Path_7" data-name="Path 7" d="M-55.141-13.716V10.222h15.662V5.5h-10.26V-13.716Zm41.477,6.84,2.079-4.48a17.11,17.11,0,0,0-9.1-2.6c-5.544,0-9.267,2.736-9.267,7.079,0,8.489,12.756,5.847,12.756,10.362,0,1.471-1.334,2.292-3.557,2.292a14.173,14.173,0,0,1-8.489-3.591L-31.394,6.6a16.805,16.805,0,0,0,10.587,3.8c5.3,0,9.369-2.531,9.369-7.216C-11.4-5.438-24.159-2.976-24.159-7.389c0-1.3,1.232-1.949,3.044-1.949a16.694,16.694,0,0,1,7.451,2.462ZM-1.489-1.985V1.5H7.334V-1.987Zm30.4-11.729H18.756V10.222h9.951C36.268,10.222,41.5,5.3,41.5-1.748c0-7.079-5.165-11.968-12.585-11.968Zm.137,19.39H24.164V-9.166h4.65a7.063,7.063,0,0,1,5.214,2.16,7.063,7.063,0,0,1,1.967,5.29A6.9,6.9,0,0,1,34.143,3.5a6.9,6.9,0,0,1-5.089,2.175ZM72.074-13.716H66.637L60.66-2.978,54.539-13.719H49.094L57.951,2.627v7.6h5.4V2.493Zm9.369,0V10.222h5.165V-5.133L98.2,10.222h4.924V-13.716H98V1.674L86.368-13.716ZM132.9,10.222h5.786L128.47-13.716h-5.579L112.5,10.222h5.573l1.881-4.65h11.088ZM121.729,1.229l3.8-9.3,3.761,9.3Z" transform="translate(587.026 132.378)" fill="#100f0c"/>
    </g>
    <path id="Path_1-2" data-name="Path 1" d="M856.071,619.642H864.8l33.469-79.115h-8.358Z" transform="translate(-11 -80)" fill="#ffb71b"/>
  </g>
</svg>
