<?xml version="1.0" encoding="utf-8"?>
<!-- Generator: Adobe Illustrator 21.0.0, SVG Export Plug-In . SVG Version: 6.00 Build 0)  -->
<svg version="1.1" id="Layer_1" xmlns="http://www.w3.org/2000/svg" xmlns:xlink="http://www.w3.org/1999/xlink" x="0px" y="0px"
	 viewBox="0 0 197 100" enable-background="new 0 0 197 100" xml:space="preserve">
<g>
	<g>
		<path fill="#A7272D" d="M37.51,79.19h-8.15V62.74l-7.28,11.24v0.05h-4.53v-0.05l-7.33-11.33l0.05,16.54H2.11v-32.8h6.03
			L19.81,63.9l11.63-17.51h6.08V79.19z"/>
		<path fill="#A7272D" d="M58.2,59.46h14.52v6.95H58.2v5.69h16.64v7.09H50.05v-32.8h24.79v7.09H58.2V59.46z"/>
		<path fill="#A7272D" d="M102.14,53.67v25.51h-8.15V53.67H83.52v-7.28h29.04v7.28H102.14z"/>
		<path fill="#A7272D" d="M126.55,73.54l-2.17,5.64h-8.68l13.94-32.99h7.77l13.89,32.99h-8.63l-2.22-5.64H126.55z M133.49,55.7
			l-4.25,10.9h8.49L133.49,55.7z"/>
	</g>
</g>
<g>
	<path fill="#4D4D4D" d="M5.15,89.28c1.97,0,3.21,1.07,3.21,2.77c0,1.77-1.29,2.87-3.36,2.87H3.98v1.92H2.1v-7.57H5.15z M5.1,93.27
		c0.83,0,1.37-0.48,1.37-1.23c0-0.68-0.53-1.11-1.37-1.11H3.98v2.34H5.1z"/>
	<path fill="#4D4D4D" d="M20.64,93.06c0,2.2-1.72,3.94-4.02,3.94c-2.28,0-4.01-1.74-4.01-3.94c0-2.2,1.73-3.94,4.01-3.94
		C18.92,89.12,20.64,90.86,20.64,93.06z M18.73,93.06c0-1.19-0.88-2.19-2.1-2.19c-1.22,0-2.1,1-2.1,2.19c0,1.19,0.88,2.19,2.1,2.19
		C17.85,95.25,18.73,94.25,18.73,93.06z"/>
	<path fill="#4D4D4D" d="M31.46,91.63h-1.89c-0.1-0.57-0.46-0.96-1.22-0.96c-0.65,0-1.08,0.27-1.08,0.76c0,0.41,0.3,0.59,0.87,0.71
		l1.06,0.24c1.38,0.3,2.28,0.86,2.28,2.16c0,1.51-1.25,2.46-3.14,2.46c-1.7,0-3.24-0.8-3.42-2.67h1.88c0.12,0.67,0.7,1.07,1.59,1.07
		c0.7,0,1.07-0.26,1.07-0.67c0-0.26-0.16-0.52-0.8-0.65l-1.25-0.28c-1.49-0.32-2.19-1.02-2.19-2.23c0-1.51,1.22-2.47,3-2.47
		C29.44,89.11,31.27,89.59,31.46,91.63z"/>
	<path fill="#4D4D4D" d="M39.81,90.96v5.89h-1.88v-5.89h-2.42v-1.68h6.7v1.68H39.81z"/>
	<path fill="#4D4D4D" d="M56.18,89.28c1.97,0,3.21,1.07,3.21,2.77c0,1.77-1.29,2.87-3.36,2.87h-1.01v1.92h-1.88v-7.57H56.18z
		 M56.14,93.27c0.83,0,1.37-0.48,1.37-1.23c0-0.68-0.53-1.11-1.37-1.11h-1.12v2.34H56.14z"/>
	<path fill="#4D4D4D" d="M65.62,94.65v2.19h-1.88v-7.57h3.32c1.87,0,3.13,1.02,3.13,2.66c0,1.06-0.55,1.89-1.45,2.35l1.95,2.56
		h-2.27l-1.62-2.19H65.62z M67.01,92.96c0.72,0,1.3-0.4,1.3-1.02c0-0.61-0.58-1-1.3-1h-1.39v2.03H67.01z"/>
	<path fill="#4D4D4D" d="M82.58,93.06c0,2.2-1.72,3.94-4.02,3.94c-2.28,0-4.01-1.74-4.01-3.94c0-2.2,1.73-3.94,4.01-3.94
		C80.86,89.12,82.58,90.86,82.58,93.06z M80.67,93.06c0-1.19-0.88-2.19-2.1-2.19c-1.22,0-2.1,1-2.1,2.19c0,1.19,0.88,2.19,2.1,2.19
		C79.79,95.25,80.67,94.25,80.67,93.06z"/>
	<path fill="#4D4D4D" d="M93,93.7h1.93c-0.23,1.96-1.73,3.3-3.8,3.3c-2.28,0-4.01-1.66-4.01-3.94c0-2.28,1.73-3.94,4.01-3.94
		c2.07,0,3.56,1.33,3.8,3.29H93c-0.21-0.95-0.88-1.54-1.88-1.54c-1.24,0-2.09,0.92-2.09,2.18c0,1.26,0.86,2.18,2.09,2.18
		C92.12,95.24,92.78,94.65,93,93.7z"/>
	<path fill="#4D4D4D" d="M101.53,92.29h3.35v1.6h-3.35v1.31h3.84v1.64h-5.72v-7.57h5.72v1.64h-3.84V92.29z"/>
	<path fill="#4D4D4D" d="M116.17,91.63h-1.89c-0.1-0.57-0.46-0.96-1.22-0.96c-0.65,0-1.08,0.27-1.08,0.76c0,0.41,0.3,0.59,0.87,0.71
		l1.06,0.24c1.38,0.3,2.28,0.86,2.28,2.16c0,1.51-1.25,2.46-3.14,2.46c-1.7,0-3.24-0.8-3.42-2.67h1.88c0.12,0.67,0.7,1.07,1.59,1.07
		c0.7,0,1.07-0.26,1.07-0.67c0-0.26-0.16-0.52-0.8-0.65l-1.25-0.28c-1.49-0.32-2.19-1.02-2.19-2.23c0-1.51,1.22-2.47,3-2.47
		C114.15,89.11,115.98,89.59,116.17,91.63z"/>
	<path fill="#4D4D4D" d="M126.93,91.63h-1.89c-0.1-0.57-0.46-0.96-1.22-0.96c-0.65,0-1.08,0.27-1.08,0.76c0,0.41,0.3,0.59,0.87,0.71
		l1.06,0.24c1.38,0.3,2.28,0.86,2.28,2.16c0,1.51-1.25,2.46-3.14,2.46c-1.7,0-3.24-0.8-3.42-2.67h1.88c0.12,0.67,0.7,1.07,1.59,1.07
		c0.7,0,1.07-0.26,1.07-0.67c0-0.26-0.16-0.52-0.8-0.65l-1.25-0.28c-1.49-0.32-2.19-1.02-2.19-2.23c0-1.51,1.22-2.47,3-2.47
		C124.91,89.11,126.74,89.59,126.93,91.63z"/>
	<path fill="#4D4D4D" d="M139.4,93.06c0,2.2-1.72,3.94-4.02,3.94c-2.28,0-4.01-1.74-4.01-3.94c0-2.2,1.73-3.94,4.01-3.94
		C137.67,89.12,139.4,90.86,139.4,93.06z M137.48,93.06c0-1.19-0.88-2.19-2.1-2.19c-1.22,0-2.1,1-2.1,2.19
		c0,1.19,0.88,2.19,2.1,2.19C136.6,95.25,137.48,94.25,137.48,93.06z"/>
	<path fill="#4D4D4D" d="M145.99,94.65v2.19h-1.88v-7.57h3.32c1.87,0,3.13,1.02,3.13,2.66c0,1.06-0.55,1.89-1.45,2.35l1.95,2.56
		h-2.27l-1.62-2.19H145.99z M147.38,92.96c0.72,0,1.3-0.4,1.3-1.02c0-0.61-0.58-1-1.3-1h-1.39v2.03H147.38z"/>
</g>
<path fill="#A7272D" d="M194.69,28.42c-0.43-2.63-1.71-4.65-3.12-6.29c0.64-1.7,0.97-3.41,0.97-5.11c0-2.61-0.76-5.15-2.22-7.61
	C186.42,3,179.14,3,174.8,3h-14.94l-0.03,29.76h7.94v13.09h13.49c0,0,1.13-0.03,3.38-0.66h0.03v-0.01c0.57-0.17,1.14-0.36,1.7-0.62
	c2.76-1.31,5.23-3.72,6.8-6.61c1.16-2.19,1.74-4.52,1.74-6.98C194.9,30.15,194.84,29.29,194.69,28.42z M189.65,36.05
	c-0.01,0.01-0.02,0.02-0.02,0.04l0.03,0.01c-1.08,2.01-2.94,3.94-4.99,4.9c-1.84,0.86-4.06,0.89-6.26,0.89c-0.05,0-0.07,0-0.07,0
	l-6.98-0.1V31.15v-8.8l2.98,5.11h2.37l3.01-5.16V32.8h3.08V14.04h-2.87l-4.39,8.73l-4.9-8.73h-2.87v14.67h-3.94V6.99h10.97
	c4.9,0,9.64,0.37,12.12,4.5c1.1,1.84,1.64,3.67,1.64,5.54c0,1.57-0.41,3.19-1.23,4.84c-0.16,0.25-0.37,0.57-0.65,0.94
	c0,0,0.18,0.15,0.39,0.36l0.26,0.27c0.35,0.35,0.69,0.71,1.02,1.08c0.29,0.32,0.55,0.64,0.8,0.97c0.8,1.08,1.41,2.24,1.62,3.57
	c0.1,0.65,0.14,1.29,0.14,1.91C190.91,32.74,190.5,34.44,189.65,36.05z"/>
</svg>
